<svg xmlns="http://www.w3.org/2000/svg" width="1200" height="360" viewBox="0 0 1200 360" role="img" aria-labelledby="title desc">
  <title id="title">Fuad Hasan Chowdhury — Senior Software Engineer</title>
  <desc id="desc">Backend architecture, database performance, and banking systems</desc>
  <defs>
    <linearGradient id="bg" x1="0" y1="0" x2="1" y2="1">
      <stop offset="0" stop-color="#12161d"/>
      <stop offset="1" stop-color="#17394a"/>
    </linearGradient>
    <radialGradient id="warm" cx="0" cy="0" r="1" gradientTransform="translate(112 38) rotate(48) scale(420 330)">
      <stop stop-color="#d44b26" stop-opacity=".5"/>
      <stop offset="1" stop-color="#d44b26" stop-opacity="0"/>
    </radialGradient>
    <pattern id="grid" width="28" height="28" patternUnits="userSpaceOnUse">
      <path d="M28 0H0v28" fill="none" stroke="#fff" stroke-opacity=".055"/>
    </pattern>
    <filter id="shadow" x="-20%" y="-20%" width="140%" height="140%">
      <feDropShadow dx="0" dy="10" stdDeviation="12" flood-color="#000" flood-opacity=".24"/>
    </filter>
  </defs>
  <rect width="1200" height="360" rx="28" fill="url(#bg)"/>
  <rect width="1200" height="360" rx="28" fill="url(#warm)"/>
  <rect width="1200" height="360" rx="28" fill="url(#grid)"/>
  <circle cx="1055" cy="64" r="150" fill="#5bc0de" opacity=".07"/>
  <circle cx="1135" cy="320" r="190" fill="#d44b26" opacity=".09"/>
  <g filter="url(#shadow)">
    <rect x="72" y="60" width="78" height="78" rx="18" fill="#f8f5ef"/>
    <text x="111" y="114" text-anchor="middle" font-family="Georgia, serif" font-size="48" font-weight="700" fill="#12161d">F</text>
    <circle cx="139" cy="70" r="6" fill="#d44b26"/>
  </g>
  <text x="72" y="202" font-family="Georgia, serif" font-size="51" font-weight="700" fill="#fff">Fuad Hasan Chowdhury</text>
  <text x="75" y="246" font-family="Arial, sans-serif" font-size="21" font-weight="700" letter-spacing="4" fill="#f4ae94">SENIOR SOFTWARE ENGINEER</text>
  <g font-family="Arial, sans-serif" font-size="17" font-weight="600" fill="#dbe8ee">
    <rect x="72" y="282" width="204" height="42" rx="21" fill="#fff" fill-opacity=".08" stroke="#fff" stroke-opacity=".14"/>
    <text x="174" y="309" text-anchor="middle">Backend Architecture</text>
    <rect x="290" y="282" width="218" height="42" rx="21" fill="#fff" fill-opacity=".08" stroke="#fff" stroke-opacity=".14"/>
    <text x="399" y="309" text-anchor="middle">Database Performance</text>
    <rect x="522" y="282" width="206" height="42" rx="21" fill="#fff" fill-opacity=".08" stroke="#fff" stroke-opacity=".14"/>
    <text x="625" y="309" text-anchor="middle">Banking Systems</text>
  </g>
  <g transform="translate(919 116)" fill="none" stroke-linecap="round" stroke-linejoin="round">
    <path d="M0 45h88M44 1v88" stroke="#f4ae94" stroke-width="3" opacity=".7"/>
    <circle cx="44" cy="45" r="72" stroke="#fff" stroke-opacity=".16" stroke-width="2"/>
    <circle cx="44" cy="45" r="46" stroke="#fff" stroke-opacity=".25" stroke-width="2"/>
    <circle cx="44" cy="45" r="9" fill="#d44b26" stroke="none"/>
    <circle cx="44" cy="-27" r="5" fill="#f8f5ef" stroke="none"/>
    <circle cx="116" cy="45" r="5" fill="#5bc0de" stroke="none"/>
    <circle cx="44" cy="117" r="5" fill="#f8f5ef" stroke="none"/>
    <circle cx="-28" cy="45" r="5" fill="#5bc0de" stroke="none"/>
  </g>
</svg>
